# xmcd
#
# Track frame offsets:
#	150
#	17360
#	30440
#	45427
#	61391
#	76414
#	93582
#	108660
#	124326
#	140631
#	154285
#	169968
#	184831
#	202641
#	215768
#	228779
#
# Disc length: 3264 seconds
#
# Revision: 0
# Processed by: cddbd v1.5.2PL0 Copyright (c) Steve Scherf et al.
# Submitted via: EasyCDDAExtractor 16.0.9.1
#
DISCID=d50cbe10
DTITLE=Nu Country Traxx Volume 199 US
DYEAR=2015
DGENRE=country
TTITLE0=George Strait - Cold Beer Conversation
TTITLE1=Brett Eldredge - Drunk On Your Love
TTITLE2=Toby Keith - Beautiful Stranger
TTITLE3=Chris Janson - Power Of Positive Drinkin'
TTITLE4=Maddie and Tae - Shut Up And Fish
TTITLE5=Ryan Kinder - Tonight
TTITLE6=Dylan Scott - Crazy Over Me
TTITLE7=Kip Moore - Running For You
TTITLE8=Ashley Campbell - Remembering
TTITLE9=Lindsay Ell - By The Way
TTITLE10=Blackjack Billy - Night Light
TTITLE11=Carissa Leigh - So Long
TTITLE12=Presley and Taylor - While You Were Gone
TTITLE13=Jess Moskaluke - Kiss Me Quiet
TTITLE14=George Canyon - I Got This
TTITLE15=Elvis Carden - Big Red
EXTD=
EXTT0=
EXTT1=
EXTT2=
EXTT3=
EXTT4=
EXTT5=
EXTT6=
EXTT7=
EXTT8=
EXTT9=
EXTT10=
EXTT11=
EXTT12=
EXTT13=
EXTT14=
EXTT15=
PLAYORDER=
